<svg xmlns="http://www.w3.org/2000/svg" width="21.583" height="20.443" viewBox="0 0 21.583 20.443"><defs><style>.a{fill:none;stroke-linecap:round;stroke-linejoin:round;}.b,.c{stroke:none;}.c{fill:#fff;}</style></defs><g class="a" transform="translate(2.954)"><path class="b" d="M.5,4.263V3.2A2.933,2.933,0,0,1,.752,2a2.655,2.655,0,0,1,.667-.912,2.311,2.311,0,0,1,.95-.508,2.145,2.145,0,0,1,1.1.011l12.758,3.87a2.92,2.92,0,0,1,.736.509,3.216,3.216,0,0,1,.563.709,3.494,3.494,0,0,1,.36.859,3.661,3.661,0,0,1,.127.957"/><path class="c" d="M 18.01521110534668 7.992905139923096 C 17.94608497619629 7.992905139923096 17.88022994995117 7.978899002075195 17.82034111022949 7.953564643859863 C 17.76044464111328 7.928230285644531 17.70650482177734 7.891571044921875 17.66120719909668 7.846271991729736 C 17.61590766906738 7.800972938537598 17.57925605773926 7.747034549713135 17.55392456054688 7.687141418457031 C 17.52859497070312 7.627248287200928 17.51458358764648 7.561400413513184 17.51458358764648 7.492279529571533 C 17.51458358764648 7.213301181793213 17.47861289978027 6.941397190093994 17.41067886352539 6.683468341827393 C 17.34275436401367 6.425539016723633 17.24286651611328 6.181585788726807 17.11503791809082 5.958513259887695 C 16.98720741271973 5.73544454574585 16.83144187927246 5.533260822296143 16.6517505645752 5.358867645263672 C 16.47206687927246 5.184474468231201 16.26846694946289 5.037871837615967 16.04495811462402 4.925968647003174 L 3.333291053771973 1.06990659236908 C 3.29696798324585 1.060170769691467 3.260583639144897 1.051668643951416 3.224184036254883 1.044388651847839 C 3.187776803970337 1.037108778953552 3.151354312896729 1.03105103969574 3.114939451217651 1.026211857795715 C 3.078524827957153 1.021372556686401 3.04213285446167 1.01774787902832 3.005786657333374 1.015334010124207 C 2.969440698623657 1.012920022010803 2.933140277862549 1.011716961860657 2.896931648254395 1.011716961860657 C 2.804859638214111 1.011716961860657 2.713322162628174 1.019489526748657 2.622861862182617 1.034924030303955 C 2.53239369392395 1.050354719161987 2.443010568618774 1.073447227478027 2.35526967048645 1.104086995124817 C 2.267520904541016 1.134726881980896 2.18140721321106 1.172910094261169 2.097485780715942 1.218526005744934 C 2.013564348220825 1.264138221740723 1.931827664375305 1.317186832427979 1.852833390235901 1.377553582191467 C 1.719526171684265 1.479426503181458 1.599640607833862 1.598380088806152 1.494811296463013 1.730957865715027 C 1.389982104301453 1.863535523414612 1.300194025039673 2.009737253189087 1.227074027061462 2.166102647781372 C 1.153954029083252 2.322468042373657 1.0975022315979 2.489004611968994 1.059322834014893 2.662248134613037 C 1.021143436431885 2.83549165725708 1.001251578330994 3.015442371368408 1.001251578330994 3.19865083694458 L 1.001251578330994 4.262530326843262 C 1.001251578330994 4.331651210784912 0.9872417449951172 4.397502899169922 0.9619110226631165 4.457396030426025 C 0.9365726709365845 4.517289161682129 0.8999133706092834 4.571227550506592 0.8546144366264343 4.61652660369873 C 0.8093155026435852 4.661825656890869 0.7553845643997192 4.69848108291626 0.6954876184463501 4.723815441131592 C 0.6355906128883362 4.749146461486816 0.5697429776191711 4.763155937194824 0.5006257891654968 4.763155937194824 C 0.4315086305141449 4.763155937194824 0.3656609356403351 4.749146461486816 0.3057639896869659 4.723815441131592 C 0.2458670288324356 4.69848108291626 0.1919360905885696 4.661825656890869 0.1466371566057205 4.61652660369873 C 0.1013382226228714 4.571227550506592 0.06467892974615097 4.517289161682129 0.0393405593931675 4.457396030426025 C 0.01400982216000557 4.397502899169922 0 4.331651210784912 0 4.262530326843262 L 0 3.19865083694458 C 0 2.937960624694824 0.02908909693360329 2.68130350112915 0.08489921689033508 2.433648824691772 C 0.1407016962766647 2.185994386672974 0.2232328355312347 1.947342395782471 0.3301245868206024 1.722665786743164 C 0.4370163083076477 1.497989177703857 0.5682686567306519 1.287284135818481 0.7215134501457214 1.095516085624695 C 0.874765932559967 0.903748095035553 1.050003290176392 0.7309208512306213 1.244880437850952 0.581999659538269 C 1.367493033409119 0.4882965385913849 1.49567449092865 0.4057959616184235 1.628149151802063 0.3347537815570831 C 1.760623693466187 0.2637116014957428 1.897391319274902 0.2041316628456116 2.03719162940979 0.156262218952179 C 2.176991939544678 0.1083889678120613 2.319832563400269 0.07223384827375412 2.464445352554321 0.04804131388664246 C 2.609065771102905 0.02385259978473186 2.75545859336853 0.01163029111921787 2.902363061904907 0.01163029111921787 C 2.960839033126831 0.01163029111921787 3.019399404525757 0.01356676314026117 3.077959537506104 0.01745498552918434 C 3.136527299880981 0.02134320698678493 3.195095062255859 0.02718699909746647 3.253578662872314 0.03499399870634079 C 3.312062501907349 0.04280481860041618 3.370469808578491 0.05258648470044136 3.428724527359009 0.06435045599937439 C 3.486979007720947 0.07611443102359772 3.545080900192261 0.08986452966928482 3.602938175201416 0.10561603307724 C 3.604099273681641 0.1059292256832123 3.605260372161865 0.106250062584877 3.606413841247559 0.1065747141838074 C 3.607567310333252 0.1068993732333183 3.608720779418945 0.1072240248322487 3.609874248504639 0.1075563207268715 C 3.611027717590332 0.1078886166214943 3.612181186676025 0.1082247272133827 3.613327026367188 0.1085646599531174 C 3.614480495452881 0.1089084148406982 3.615634202957153 0.1092521697282791 3.616780042648315 0.1095997393131256 L 16.37435722351074 3.97958779335022 C 16.38050651550293 3.981455564498901 16.38661766052246 3.983437776565552 16.39269065856934 3.98553466796875 C 16.39876365661621 3.987635374069214 16.40479850769043 3.989850759506226 16.41077995300293 3.992184400558472 C 16.41676139831543 3.994518041610718 16.42270469665527 3.996962547302246 16.42860221862793 3.999521493911743 C 16.43449211120605 4.00208044052124 16.44033432006836 4.004754066467285 16.44612503051758 4.007542610168457 C 16.76045227050781 4.158804893493652 17.04696655273438 4.357742309570312 17.29993057250977 4.594683170318604 C 17.55290222167969 4.831624031066895 17.77232933044434 5.10657262802124 17.95246315002441 5.40986156463623 C 18.13259887695312 5.713146686553955 18.2734375 6.044772148132324 18.3692455291748 6.395063400268555 C 18.46505928039551 6.745355129241943 18.51583671569824 7.114315986633301 18.51583671569824 7.492279529571533 C 18.51583671569824 7.561400413513184 18.5018253326416 7.627248287200928 18.47649574279785 7.687141418457031 C 18.45115661621094 7.747034549713135 18.41449737548828 7.800972938537598 18.36919975280762 7.846271991729736 C 18.32390022277832 7.891571044921875 18.26996994018555 7.928230285644531 18.2100715637207 7.953564643859863 C 18.15017509460449 7.978899002075195 18.08432769775391 7.992905139923096 18.01521110534668 7.992905139923096 Z"/></g><g class="a" transform="translate(0 3.686)"><path class="b" d="M4.506.5H17.077a4,4,0,0,1,4.005,4.005v7.746a4,4,0,0,1-4.005,4.005H4.506A4,4,0,0,1,.5,12.252V4.506A4,4,0,0,1,4.506.5Z"/><path class="c" d="M 17.07694625854492 16.75724792480469 L 4.505631446838379 16.75724792480469 C 3.884527683258057 16.75724792480469 3.292373895645142 16.63092231750488 2.753514051437378 16.40261459350586 C 2.214653730392456 16.1743049621582 1.729087829589844 15.84401512145996 1.321159839630127 15.4360876083374 C 0.9132317304611206 15.02816009521484 0.5829416513442993 14.54259395599365 0.3546336591243744 14.00373363494873 C 0.1263256222009659 13.46487331390381 -4.177547054950992e-07 12.87271976470947 -4.177547054950992e-07 12.25161647796631 L -4.177547054950992e-07 4.505632877349854 C -4.177547054950992e-07 3.884529113769531 0.1263256222009659 3.292375326156616 0.3546336889266968 2.753515481948853 C 0.5829417109489441 2.214655160903931 0.9132317900657654 1.729089379310608 1.321159839630127 1.321161389350891 C 1.729087829589844 0.9132332801818848 2.214653730392456 0.5829432606697083 2.753514051437378 0.3546352684497833 C 3.292373895645142 0.1263272315263748 3.884527683258057 1.193584921566071e-06 4.505631446838379 1.193584921566071e-06 L 17.07694625854492 1.193584921566071e-06 C 17.69804954528809 1.193584921566071e-06 18.29020309448242 0.1263272315263748 18.82906341552734 0.3546352982521057 C 19.36792182922363 0.582943320274353 19.85348701477051 0.9132333993911743 20.26141738891602 1.321161508560181 C 20.66934585571289 1.729089379310608 20.9996337890625 2.214655160903931 21.22794342041016 2.753515481948853 C 21.45625305175781 3.292375326156616 21.58257865905762 3.884529113769531 21.58257865905762 4.505632877349854 L 21.58257865905762 12.25161647796631 C 21.58257865905762 12.87271976470947 21.45625305175781 13.46487331390381 21.22794342041016 14.00373363494873 C 20.9996337890625 14.54259395599365 20.66934585571289 15.02816009521484 20.26141738891602 15.4360876083374 C 19.85348701477051 15.84401512145996 19.36792182922363 16.1743049621582 18.82906341552734 16.40261459350586 C 18.29020309448242 16.63092231750488 17.69804954528809 16.75724792480469 17.07694625854492 16.75724792480469 Z M 4.505631446838379 1.001252770423889 C 4.022550106048584 1.001252770423889 3.561985731124878 1.099506258964539 3.142872333526611 1.277078986167908 C 2.723758935928345 1.454651713371277 2.346096515655518 1.711543798446655 2.02881932258606 2.028820991516113 C 1.711542248725891 2.346097946166992 1.454650163650513 2.723760604858398 1.277077317237854 3.142873764038086 C 1.099504590034485 3.561987161636353 1.001251220703125 4.022552013397217 1.001251220703125 4.505632877349854 L 1.001251220703125 12.25161647796631 C 1.001251220703125 12.73469734191895 1.099504590034485 13.19526100158691 1.277077317237854 13.61437511444092 C 1.454650163650513 14.03348827362061 1.711542248725891 14.41115093231201 2.02881932258606 14.72842788696289 C 2.346096515655518 15.04570484161377 2.723758935928345 15.30259704589844 3.142872333526611 15.48016929626465 C 3.561985731124878 15.65774250030518 4.022550106048584 15.75599670410156 4.505631446838379 15.75599670410156 L 17.07694625854492 15.75599670410156 C 17.56002616882324 15.75599670410156 18.02059173583984 15.65774250030518 18.43970489501953 15.48016929626465 C 18.85881614685059 15.30259704589844 19.23648071289062 15.04570484161377 19.55375862121582 14.72842788696289 C 19.87103462219238 14.41115093231201 20.12792587280273 14.03348827362061 20.30550003051758 13.61437511444092 C 20.48307228088379 13.19526100158691 20.58132553100586 12.73469734191895 20.58132553100586 12.25161647796631 L 20.58132553100586 4.505632877349854 C 20.58132553100586 4.022552013397217 20.48307228088379 3.561987161636353 20.30550003051758 3.142873764038086 C 20.12792587280273 2.723760604858398 19.87103462219238 2.346097946166992 19.55375862121582 2.028820991516113 C 19.23648071289062 1.711543798446655 18.85881614685059 1.454651713371277 18.43970489501953 1.277078986167908 C 18.02059173583984 1.099506258964539 17.56002616882324 1.001252770423889 17.07694625854492 1.001252770423889 L 4.505631446838379 1.001252770423889 Z"/></g><g class="a" transform="translate(0 8.8)"><path class="b" d="M.5.5H7A2.389,2.389,0,1,1,7,5.278H.5Z"/><path class="c" d="M 6.995562553405762 5.778487682342529 L 0.5006235837936401 5.778487682342529 C 0.4315021932125092 5.778487682342529 0.3656523823738098 5.764479160308838 0.3057584464550018 5.739145755767822 C 0.245864525437355 5.713812828063965 0.1919264793395996 5.677154541015625 0.1466285884380341 5.631856918334961 C 0.1013307049870491 5.586558818817139 0.06467302143573761 5.532621383666992 0.03933978080749512 5.472727298736572 C 0.01400653924793005 5.412833213806152 -2.208131945735659e-06 5.346983432769775 -2.208131945735659e-06 5.277862071990967 L -2.208131945735659e-06 0.5006304383277893 C -2.208131945735659e-06 0.4315090477466583 0.01400653924793005 0.365659236907959 0.03933978080749512 0.305765300989151 C 0.06467302143573761 0.2458713799715042 0.1013307049870491 0.19193334877491 0.1466285884380341 0.1466354578733444 C 0.1919264793395996 0.1013375669717789 0.245864525437355 0.06467989087104797 0.3057584464550018 0.03934664651751518 C 0.3656523823738098 0.01401340309530497 0.4315021932125092 4.654981239582412e-06 0.5006235837936401 4.654981239582412e-06 L 6.995562553405762 4.654981239582412e-06 C 7.393847942352295 4.654981239582412e-06 7.773568153381348 0.08101153373718262 8.119113922119141 0.2274145632982254 C 8.464659690856934 0.3738175928592682 8.776030540466309 0.5856167078018188 9.037615776062012 0.8472012281417847 C 9.299201011657715 1.10878574848175 9.51099967956543 1.420155644416809 9.657402992248535 1.765699982643127 C 9.803806304931641 2.111244440078735 9.88481330871582 2.490963459014893 9.88481330871582 2.889246225357056 C 9.88481330871582 3.287528991699219 9.803806304931641 3.667248010635376 9.657402992248535 4.012792110443115 C 9.51099967956543 4.358336925506592 9.299201011657715 4.66970682144165 9.037615776062012 4.931291103363037 C 8.776030540466309 5.192875862121582 8.464659690856934 5.404674530029297 8.119113922119141 5.551077842712402 C 7.773568153381348 5.697481155395508 7.393847942352295 5.778487682342529 6.995562553405762 5.778487682342529 Z M 1.001249313354492 4.777235984802246 L 6.995562553405762 4.777235984802246 C 7.255825519561768 4.777235984802246 7.503956317901611 4.724301815032959 7.729755878448486 4.628633975982666 C 7.955554962158203 4.532966136932373 8.159021377563477 4.394565105438232 8.3299560546875 4.223631858825684 C 8.500890731811523 4.052698135375977 8.63929271697998 3.849231958389282 8.734959602355957 3.623434066772461 C 8.830628395080566 3.397636413574219 8.883562088012695 3.149506807327271 8.883562088012695 2.889246225357056 C 8.883562088012695 2.62898588180542 8.830628395080566 2.380856275558472 8.734959602355957 2.155058622360229 C 8.63929271697998 1.929260730743408 8.500890731811523 1.725794434547424 8.3299560546875 1.554860830307007 C 8.159021377563477 1.3839271068573 7.955554962158203 1.24552595615387 7.729755878448486 1.149858236312866 C 7.503956317901611 1.054190516471863 7.255825519561768 1.001256227493286 6.995562553405762 1.001256227493286 L 1.001249313354492 1.001256227493286 L 1.001249313354492 4.777235984802246 Z"/></g></svg>