<svg xmlns="http://www.w3.org/2000/svg" width="19.024" height="18.023" viewBox="0 0 19.024 18.023"><defs><style>.a{fill:none;stroke-linecap:round;stroke-linejoin:round;}.b,.c{stroke:none;}.c{fill:#fff;}</style></defs><g class="a" transform="translate(0 8.511)"><path class="b" d="M18.523.5H.5"/><path class="c" d="M 0.5006257891654968 1.001251578330994 L 18.52315330505371 1.001251578330994 C 18.59227180480957 1.001251578330994 18.65811920166016 0.9872455596923828 18.71801567077637 0.9619110226631165 C 18.77791213989258 0.9365764856338501 18.83184432983398 0.8999171853065491 18.87714195251465 0.8546182513237 C 18.92244148254395 0.8093193173408508 18.9591007232666 0.7553807497024536 18.98443984985352 0.6954876184463501 C 19.00976943969727 0.6355944871902466 19.02378082275391 0.5697467923164368 19.02378082275391 0.5006257891654968 C 19.02378082275391 0.4315048158168793 19.00976943969727 0.3656571209430695 18.98443984985352 0.3057639896869659 C 18.9591007232666 0.2458708435297012 18.92244148254395 0.191932275891304 18.87714195251465 0.1466333419084549 C 18.83184432983398 0.1013344004750252 18.77791213989258 0.06467511504888535 18.71801567077637 0.0393405593931675 C 18.65811920166016 0.01400600280612707 18.59227180480957 0 18.52315330505371 0 L 0.5006257891654968 0 C 0.4315086305141449 0 0.3656609356403351 0.01400600280612707 0.3057639896869659 0.0393405593931675 C 0.2458670288324356 0.06467511504888535 0.1919360905885696 0.1013344004750252 0.1466371566057205 0.1466333419084549 C 0.1013382226228714 0.191932275891304 0.06467892974615097 0.2458708435297012 0.0393405593931675 0.3057639896869659 C 0.01400982216000557 0.3656571209430695 0 0.4315048158168793 0 0.5006257891654968 C 0 0.5697467923164368 0.01400982216000557 0.6355944871902466 0.0393405593931675 0.6954876184463501 C 0.06467892974615097 0.7553807497024536 0.1013382226228714 0.8093193173408508 0.1466371566057205 0.8546182513237 C 0.1919360905885696 0.8999171853065491 0.2458670288324356 0.9365764856338501 0.3057639896869659 0.9619110226631165 C 0.3656609356403351 0.9872455596923828 0.4315086305141449 1.001251578330994 0.5006257891654968 1.001251578330994 Z"/></g><g class="a" transform="translate(9.011)"><path class="b" d="M.5,0A.5.5,0,0,0,0,.5V17.522a.5.5,0,1,0,1,0V.5A.5.5,0,0,0,.5,0Z"/><path class="c" d="M 0.5006257891654968 18.02252769470215 C 0.5697472095489502 18.02252769470215 0.6355969905853271 18.00851821899414 0.6954909563064575 17.98318672180176 C 0.7553848624229431 17.95785331726074 0.8093228936195374 17.92119407653809 0.8546207547187805 17.87589645385742 C 0.8999186754226685 17.83060073852539 0.9365763664245605 17.77666091918945 0.9619095921516418 17.71676826477051 C 0.9872428178787231 17.65687370300293 1.001251578330994 17.59102439880371 1.001251578330994 17.52190208435059 L 1.001251578330994 0.5006257891654968 C 1.001251578330994 0.4315043985843658 0.9872428178787231 0.3656545877456665 0.9619095921516418 0.3057606518268585 C 0.9365763664245605 0.2458667308092117 0.8999186754226685 0.1919286698102951 0.8546207547187805 0.1466307938098907 C 0.8093228936195374 0.101332925260067 0.7553848624229431 0.0646752268075943 0.6954909563064575 0.0393419936299324 C 0.6355969905853271 0.01400876045227051 0.5697472095489502 0 0.5006257891654968 0 C 0.4315043985843658 0 0.3656546175479889 0.01400876045227051 0.3057606518268585 0.03934198990464211 C 0.2458667308092117 0.0646752193570137 0.1919286847114563 0.101332925260067 0.1466308236122131 0.1466307938098907 C 0.1013329699635506 0.1919286549091339 0.0646752342581749 0.2458667159080505 0.03934198990464211 0.3057606518268585 C 0.01400874741375446 0.3656545877456665 0 0.4315043985843658 0 0.5006257891654968 L 0 17.52190208435059 C 0 17.59102439880371 0.01400874741375446 17.65687370300293 0.03934198990464211 17.71676826477051 C 0.0646752342581749 17.77666091918945 0.1013329699635506 17.83060073852539 0.1466308236122131 17.87589645385742 C 0.1919286847114563 17.92119407653809 0.2458667308092117 17.95785331726074 0.3057606518268585 17.98318672180176 C 0.3656546175479889 18.00851821899414 0.4315043985843658 18.02252769470215 0.5006257891654968 18.02252769470215 Z"/></g><g class="a" transform="translate(9.011 9.011)"><path class="b" d="M.874,0h-.5a.376.376,0,1,0,0,.751h.5Z"/><path class="c" d="M 0.3757436573505402 0.7514947652816772 L 0.8735459446907043 0.7514947652816772 L 0.8735459446907043 -4.63233163827681e-06 L 0.3757436573505402 -4.63233163827681e-06 C 0.3238638043403625 -4.63233163827681e-06 0.2744395434856415 0.01050976011902094 0.2294855564832687 0.02952384017407894 C 0.184531569480896 0.04853792116045952 0.1440477967262268 0.07605168968439102 0.1100490614771843 0.1100504398345947 C 0.07605033367872238 0.1440491825342178 0.04853653162717819 0.1845329105854034 0.02952242642641068 0.2294869124889374 C 0.01050832122564316 0.2744409143924713 -6.027603831171291e-06 0.3238652050495148 -6.027603831171291e-06 0.3757450580596924 C -6.027603831171291e-06 0.42762491106987 0.01050832122564316 0.4770492017269135 0.02952242642641068 0.5220032334327698 C 0.04853653162717819 0.5669572353363037 0.07605033367872238 0.6074409484863281 0.1100490614771843 0.64143967628479 C 0.1440477967262268 0.6754384636878967 0.184531569480896 0.7029522061347961 0.2294855564832687 0.7219663262367249 C 0.2744395434856415 0.7409803867340088 0.3238638043403625 0.7514947652816772 0.3757436573505402 0.7514947652816772 Z"/></g></svg>